<?xml version="1.0" encoding="utf-8"?>
<!-- Generator: Adobe Illustrator 19.2.1, SVG Export Plug-In . SVG Version: 6.00 Build 0)  -->
<svg version="1.1" xmlns="http://www.w3.org/2000/svg" xmlns:xlink="http://www.w3.org/1999/xlink" x="0px" y="0px"
	 viewBox="0 0 612 612" style="enable-background:new 0 0 612 612;" xml:space="preserve">
<style type="text/css">
	.st0{fill-rule:evenodd;clip-rule:evenodd;fill:#70B0A8;}
</style>
<g id="Layer_1">
</g>
<g id="Jolly_Icons_Free">
	<g id="mail_1_">
		<g>
			<path class="st0" d="M582.8,134.4c-4.2-7.2-21.8-3.8-30.2-7.6c-8.7-1.4-8.4,4.3-15.9,3.8c-1.4-3.1-11.1,0.4-12.7-2.5H508
				c-2.6-2.1-9.4-1-14.3-1.3c-4.3-0.8-12.6,1.6-14.3-1.3c-59.7-1.8-126.6-2.1-186.2,0c-37.5,0.6-76.4,7.4-117.8,7.6
				c-40.7,0.2-82.5-0.9-120.9,3.8c-7.2,4.4-9.5,12.8-15.9,17.8c-2.3,10-0.7,23.1-3.2,33c7.2,60.2,11,123.2,17.5,184
				c0.2,5.3,6.2,6.1,6.4,11.4c1.1,8.8,3.6,16.6,6.4,24.1c4.8,1.3,7.1,4.5,14.3,3.8c-0.2-1.5,2.3-0.8,0,0c-1.4,1-0.9,3.5-3.2,3.8
				c-0.6,11.9,12.5,12.9,23.9,15.2c13,0.7,25.2,1.9,39.8,1.3c12.2,1.7,25.6,2.4,38.2,3.8h143.2c33.8-4,71.3-4.9,105-8.9
				c38.9,0.2,70.7-5.4,106.6-7.6c7.6-1.4,2.2,7.6,8,7.6c1.2,3.3,5.1,4.4,11.1,3.8c6.9-1.2,9.8-5.7,11.1-11.4
				c1.8-5.4,1.8-12.1,1.6-19V359c2.2-25.3,4.5-50.5,4.8-77.4c3.4-24.4,1.7-52.8,4.8-77.4c0.7-13,3.1-24.6,4.8-36.8
				c-1.2-7.7,2.6-11.4,3.2-17.8C584.1,144,587.7,138.4,582.8,134.4z M94.2,158.5h108.2c41.6-3.7,83.3-7.2,130.5-6.3
				c2.7,0.3,4.1-2.2,4.8,0c1.7,1.3,7.9-1.3,8-1.3c0.1,0.1,0,1.3,0,1.3c4.9-0.2,6.3-0.7,9.6,0c0.8,0.2,2.3,0.1,3.2,0
				c4.1-0.3,4.9,0,11.1,0c0,0,0.3-1.5,1.6-1.3c0.1,0,0.5,1.1,1.6,1.3c3.2,0.3,9-0.1,14.3,0c-0.4,0,0.8-2.1,1.6-1.3
				c2,2,8.3,1.1,14.3,1.3c10.2-0.6,11.6-0.2,22.3,0c35.4,0.1,69.6,1.2,100.3,5.1c6.7-0.2,0,1.9,0,3.8c-2.1,1.3-4.8,2.1-6.4,3.8
				c-3.7,2.6-8.1,4.6-11.1,7.6c-9.4,3.5-17.1,8.3-25.5,12.7c-17.2,8.7-34.1,17.6-49.4,27.9c-4.2-1.1-2.8,2.4-6.4,2.5
				c-2.7,0.1-3.2,3.7-6.4,3.8c-1.3,0.1-6,2.7-8,3.8c-1.5,0.9-4.2,2-4.8,3.8c-10.3,2.8-15.8,9.4-25.5,12.7
				c-14.9,10.5-31.7,19.6-46.1,30.5c-10.3-4.9-20.1-10.2-28.7-16.5c-11-3-18.9-8.6-28.6-12.7c-8.1-4.9-18-8.5-25.5-14
				c-20.3-6.7-37.5-15.8-57.3-22.8c-39.7-14-75.9-30.8-114.6-45.7C84,155,88.6,160.3,94.2,158.5z M63.9,159.8
				c0.2-0.3,3.4-2.3,4.8-1.3C69.9,159.5,62.3,162.3,63.9,159.8z M118.1,412.3c0.5-3,1.9-5.2,3.2-7.6c2.3,2.4,3.7,5.5,4.8,8.9
				C122.3,414,119.9,413.3,118.1,412.3z M180.1,412.3h-17.5c4.1-7.3,10.2-13,14.3-20.3C183.4,394.4,178.7,405.8,180.1,412.3z
				 M549.4,191.5c-2.8,38.4-5.5,76.9-9.6,114.2v16.5c1.3,3.6-2.2,3.3-1.6,6.3v19c-4,12.9,1.3,33.2-4.8,44.4
				c-12-0.7-19.5,2.2-31.8,1.3c-39,6.6-86.7,6.2-125.7,12.7c1.3-7.4,7.9-10.6,9.6-17.8c-0.9-3.7-2.5,1.9-4.8,1.3
				c-1.6,1.7-1.5,4.7-4.8,5.1c-1,4.7-4.5,7.4-6.4,11.4c-15.7,1-30.1,3.1-46.1,3.8c6.5-9.6,17.2-15.9,20.7-27.9
				c-4.9-3.3-8.5,2.6-11.1,5.1c-4,2.7-7,6.2-9.5,10.2c-4.5,1.9-6.8,5.6-12.7,6.3c0.1,3-2.7,3.7-1.6,7.6H247c0-5.2,8.1-8.8,4.8-12.7
				c-8.5,0.8-7.8,9-12.7,12.7c-14.5-0.6-26.8,0.6-39.8,1.3c-2.7-8.4-3.6-18.3-8-25.4c-3.4-5.6,2.4-7.8,0-11.4
				c-15.7,1.5-24.3,8.5-33.4,15.2c-2.5-1.8-3.1-5.1-9.6-3.8c-10.3,0.7-12.1,8.1-20.7,10.2c1.3-4.4,5.3-6.8,4.8-12.7
				c-7.3,0.2-10.7,5.4-14.3,8.9c-4,3.8-5.7,9-11.1,11.4c0.1,1.7-0.7,2.8-1.6,3.8c-0.6,2.2,2.4,3.3,0,3.8c-8.3-0.2-14-2.4-22.3-2.5
				c0.5-3,5.5-2.4,4.8-6.3c4.5-0.2,3.7,3.8,8,3.8c6.6-2,11.3-5.3,12.7-11.4c4.6-3.9,7.6-9.2,11.1-14c7.1-9.1,15.2-17.5,19.1-29.2
				c-18.9,3.1-25.5,16-36.6,25.4c0.2,1.5-2.3,0.8,0,0c5.3-10.5,13.2-19.1,19.1-29.2c5.2-9.7,20.2-17.3,14.3-31.7
				c-17.5-0.4-20.6,10.6-30.2,16.5c-5.1,9.9-14.8,16.1-19.1,26.6c-3.7-1.1,0.1-6.5,1.6-7.6c-0.4-4.6,2.9-6.1,3.2-10.2
				c4.5-4.9,5.5-12.5,9.6-17.8c1.6-6.7,6-11.3,8-17.8c2.7-6.3,9-9.7,9.6-17.8c-0.9-3.9-5.8-4.7-9.6-6.3c-9.1,0.3-11.5,6-17.5,8.9
				c-3.5,9.5-10.8,15.9-14.3,25.4c-3.6-1.4-0.6-8-1.6-11.4c2.2-2.5,1.5-7.2,3.2-10.2c0.2-4,3.6-5.6,3.2-10.2
				c3.7-1.2,1.4-7.3,4.8-8.9c2.5-13.3,16.9-23.6,11.1-39.3c-13.6-1.1-17.7,5.3-22.3,11.4c-3.6-0.9-0.6-7.1-1.6-10.1
				c-3.6-1.4-0.6-8-1.6-11.4c-3.1-19.9-5.4-40.5-7.9-60.9c3.7,1.7,5.1,5.2,7.9,7.6c11.8,4.5,21.1,11.1,31.8,16.5
				c11.9,4.4,21,11.2,33.4,15.2c20.5,11.6,45.6,19.4,66.8,30.4c12.9,3.7,23.1,9.5,33.4,15.2c11,5.1,19.6,12.3,31.8,16.5
				c8.8,7,22.7,9.9,30.2,17.8c6.8,1.8,10.7,5.9,15.9,8.9c7.8,0.9,11.6,5.1,22.3,3.8c6.5-1.6,10.7-5,12.7-10.2
				c10.1-2.9,16.3-9,25.5-12.7c6.6-6.2,17.3-9.1,23.9-15.2c10.3-2.8,15.8-9.4,25.5-12.7c7.9-5.2,17.1-9.2,25.5-14
				c30.8-20.7,70.1-34.6,98.7-57.1C552.9,179.2,550.6,188.2,549.4,191.5z M92.6,388.2c3,1.3-0.8,7.7-4.8,7.6
				C86.2,390.7,90.3,390.2,92.6,388.2z M558.9,150.9c0.3-1.4,1.6-0.7,1.6,0C560.2,152.4,558.9,151.6,558.9,150.9z"/>
		</g>
	</g>
</g>
</svg>
