<?xml version="1.0" encoding="utf-8"?>
<!-- Generator: Adobe Illustrator 20.0.0, SVG Export Plug-In . SVG Version: 6.00 Build 0)  -->
<svg version="1.1" xmlns="http://www.w3.org/2000/svg" xmlns:xlink="http://www.w3.org/1999/xlink" x="0px" y="0px"
	 viewBox="0 0 612 612" style="enable-background:new 0 0 612 612;" xml:space="preserve">
<style type="text/css">
	.st0{fill-rule:evenodd;clip-rule:evenodd;fill:#6FAFA8;}
</style>
<g id="Layer_1">
</g>
<g id="Jolly_Icons_Free">
	<g id="facebook_1_">
		<g>
			<path class="st0" d="M294.4,175.1c21.2,0.5,41.2,0,55.4-5.3c8.1-14.4,11.5-32.7,12.8-52.7c-4-0.3-1.3-5.9-4.3-7
				c-0.6-3.6-5.8-3.4-6.4-7c-5.7-2.9-9.4-7.4-14.9-10.6c-15-2.8-29.8-5.9-44.8-8.8c-17.5,0.8-39.2-1.8-53.3,1.8
				c-54.2-0.7-82.6,19.7-108.7,42.2c-0.5,1.4-0.1,3.5-2.2,3.5c-11.9,28-2.6,63.9-4.2,98.5c2,7.7,2.2,16.9,4.2,24.6
				c-20.7,5.2-45.7,6.8-70.3,8.8c-6.6,5.7-3.7,19.2-4.3,29.9c1.8,10.3,5.8,18.7,8.5,28.1c4.4,3.4,12.3,7,17.1,8.8
				c1.3,0.5,1.5,1.5,2.1,1.7c10.4,4.7,30,0.1,46.9,1.8c-2.8,34.9,5.3,69.1,0,100.2c0.1,5.8,6.1,6.7,4.3,14.1c0,17-1.4,35.1,4.3,47.5
				c-5.9,8-10.3,17.3-8.6,31.7c2.5,0.3,2.3,2.8,2.2,5.3c-1.5,8.3,13.3,3.1,10.7,12.3c3.4,8-8.8,3.2-8.5,8.8v15.8
				c11,5,30.2,3.2,46.9,3.5c18.8-7.4,45.2-8.4,57.6-21.1c9.5,4.2,18.9-0.2,25.6-3.5c-0.4-5.6,5.7-5.9,4.3-12.3
				c-0.1-5.8-3.6-8.8-2.1-15.8v-51c-4.3-40.4-1-87.1-6.4-126.6c18.3-1.8,39.6-1.3,53.3-7c7.4-8,7.8-21.7,10.7-33.4
				c3.7-4,4.6-10.3,4.3-17.6c3.9-3.8,1.4-12.9,2.1-19.3c-2.9-10.5-3.5-22.9-17.1-24.6c-18.3-4.2-42.2,10.5-61.8,5.3
				c1-20-6.1-41.3,0-59.8C265.1,182.5,279.5,178.7,294.4,175.1z M215.5,259.5c2.4,4.5,5.2,8.6,8.5,12.3c1.6,0.4,4.2,0,4.3,1.8
				c24.6,1,45.5-1.2,64-5.3c0,17.6-5.6,30.6-10.7,44c-13.7,0.8-30.3,5.3-40.5,3.5c-5.7,2.9-7.7,8.9-12.8,12.3c-1,7.8,2.9,8.7,0,14.1
				c-4.2,2.4-1.2,10.8-4.3,14.1v26.4c1.8,5-3,4.5-2.1,8.8v61.5c-1.8,5,3,4.6,2.1,8.8v52.7c1.3,4.8-2.7,13.9,2.1,15.8
				c-1.5,6.4-8.5-0.4-17.1,1.8c-10.9,2.1-19.1,6.5-32,7c2.4-6.2,6.6-11,6.4-19.3c1-6.7-7.5-5.5-10.7-8.8c4-11.3,11.6-19.7,14.9-31.6
				c4.1-9.1,14.8-22.9,6.4-31.7c-10.8-1.9-10.8,5.2-17.1,7c-0.5,1.4,0,3.5-2.1,3.5c-0.5,1.4-0.1,3.5-2.1,3.5c0.2,2.1-3.1,1.1,0,0
				c0.5-1.4,0-3.5,2.1-3.5c0.5-1.4,0-3.5,2.1-3.5v-5.3c7.6-10.1,13.8-21.4,17.1-35.2c4-4.9,5.9-11.6,8.5-17.6
				c3.2-4.6,7-15.3,2.1-21.1c-10.7,0.6-16.4,5.2-19.2,12.3c-6.6-3.3,3.3-7.6,2.1-12.3c2.9-4.1,3.5-10,6.4-14.1
				c4.2-7.3,11.7-23,0-28.1c-9-0.4-12.6,3.7-14.9,8.8c-4.4,3.4-8.9,6.7-10.7,12.3c-7.7-1.2-2.9-12.8-4.3-19.3
				c-1.4-9.2,2.5-15.9,0-21.1c-11.6-14.1-41.9-1.9-66.1-5.3c-2.3-5.4-4.6-17.4-2.1-21.1c21.6-1.5,51.2,3.6,66.1-3.5
				c0.5-1.4,0.1-3.5,2.1-3.5c1.9-12.8-5.6-17.6-10.6-24.6c4.8-14.2,0.8-35.6,2.1-52.7c4.8-2.5,6.8-7.3,10.7-10.5
				c2.3-16.8,13.9-26,14.9-44c-5.6,0-12.5-1-12.8,3.5c-6.2-2-7.9,8.4-10.6,3.5c-2.3-9.5,5.1-11.1,6.4-17.6
				c12.4-7.4,25.1-14.5,38.4-21.1c36-4.3,96.1-7.9,125.8,3.5c1.1,10.9-5.9,15.1-4.3,26.4h-32c-22.6,4.2-41.1,11.9-61.9,17.6
				c-4.9,1.2-5.7,5.8-10.7,7c-0.8,7-4.7,11.4-6.4,17.6C211.8,214.5,216.1,235,215.5,259.5z"/>
		</g>
	</g>
</g>
</svg>
