<?xml version="1.0" encoding="utf-8"?>
<!-- Generator: Adobe Illustrator 20.0.0, SVG Export Plug-In . SVG Version: 6.00 Build 0)  -->
<svg version="1.1" id="Layer_1" xmlns="http://www.w3.org/2000/svg" xmlns:xlink="http://www.w3.org/1999/xlink" x="0px" y="0px"
	 viewBox="0 0 612 612" style="enable-background:new 0 0 612 612;" xml:space="preserve">
<style type="text/css">
	.st0{fill:none;stroke:#70B0A8;stroke-width:23;stroke-miterlimit:10;}
</style>
<path class="st0" d="M461.8,534.9V326.4c0,0-10.9-43.6-49.6-41.5s-51.6,8.5-69.4,30.8v219.1h-99.2V205.2h99.2v48.9
	c0,0,32.7-68.1,99.2-62.8c61.5,4.3,107.1,44.7,117.1,130.8h2v212.7L461.8,534.9L461.8,534.9z M124.5,162.6
	c-32.7,0-59.5-28.7-59.5-63.8S91.7,35,124.5,35S184,63.7,184,98.8S157.2,162.6,124.5,162.6z M174.1,534.9H74.9V205.2h99.2V534.9z"/>
</svg>
