<?xml version="1.0" encoding="utf-8"?>
<!-- Generator: Adobe Illustrator 19.2.1, SVG Export Plug-In . SVG Version: 6.00 Build 0)  -->
<svg version="1.1" id="Jolly_Icons_Free" xmlns="http://www.w3.org/2000/svg" xmlns:xlink="http://www.w3.org/1999/xlink" x="0px"
	 y="0px" viewBox="0 0 612 612" style="enable-background:new 0 0 612 612;" xml:space="preserve">
<style type="text/css">
	.st0{fill:#70B0A8;}
</style>
<g id="twitter_1_">
	<g>
		<path class="st0" d="M592.8,152.4c-5.3-9.1-21.7-6.7-33.5-9.1h-26.4c3.5-8.5,8.2-15.8,12.3-23.7c1.2-11,5.9-18.3,5.3-31
			c2.9-4.3,4.1-10.3,7.1-14.6c2.4-3.7,5.9-11.6,1.8-16.4c-1.2-5.5-7.1-6.1-14.1-5.5c-2.4,0.6-4.1,1.8-5.3,3.7
			c-10.6,11-18.2,24.9-30,34.7c0,0-1.2,0-1.8,0c-1.8,0-0.6,1.2-1.8,1.8c-3.5,2.4-5.9,3.7-8.8,5.5c-7.1,4.3-12.9,11-21.2,12.8
			c-12.3-5.5-27.6-7.9-44.1-9.1c-27.6,2.4-54.7,5.5-72.3,18.3c-21.7,8.5-35.3,25.6-51.1,40.2c-1.2,7.9-8.2,9.7-8.8,18.3
			c0,1.2,0,2.4-1.8,1.8c1.2,6.1-1.2,8.5-1.8,12.8c0,3,4.7,10.3,0,12.8c-19.4-3-35.3-15.2-51.1-23.7c-17-9.1-34.7-14.6-49.4-27.4
			c-17-7.9-30-20.1-42.3-32.9c-4.7-7.9-12.9-12.2-15.9-21.9c-8.8-4.3-4.1-22.5-17.6-21.9c-7.6-1.2-8.2,4.9-10.6,9.1
			c-1.8,5.5-8.8,5.5-8.8,12.8c0,1.2,0,2.4-1.8,1.8C95,128,86.8,150.5,86.8,181.6c2.9,10.3,8.2,18.3,14.1,25.6
			c-10,1.2-17,5.5-21.2,12.8c-1.2,26.2,8.8,40.8,17.6,56.6c2.9,9.7,8.2,17,14.1,23.7c0.6,5.5,4.7,7.3,7.1,11c0.6,2.4,2.9,3,3.5,5.5
			c-1.2,2.4,7.1,4.3,1.8,5.5c-10,3-24.1,1.8-30,9.1c-2.4,6.7-2.4,20.7,0,27.4c0.6,6.1,6.5,6.7,7.1,12.8
			c11.8,10.3,25.9,18.3,38.8,27.4c13.5,4.3,28.8,6.7,44.1,9.1c-2.4,8.5-8.2,13.4-14.1,18.3c-18.8,9.1-44.1,11.6-65.2,18.3
			c-12.9,1.2-22.9,5.5-37,5.5c-7.6,3-20.6,1.8-26.4,5.5c-2.9,1.8-2.4,2.4-5.3,5.5c-2.9,10.3,2.4,18.3,10.6,21.9
			c0,6.1,5.3,6.7,8.8,9.1c2.4,4.3,5.9,7.3,10.6,9.1c12.9,11.6,30,18.9,45.8,27.4c20,4.3,39.4,9.1,60,12.8c21.2,3,45.3,3,67,5.5h22.9
			c12.3,3,29.4,1.2,44.1,1.8c2.4-2.4,7.6-1.8,12.3-1.8c12.3-6.7,28.2-9.7,38.8-18.3c13.5-6.1,23.5-15.8,37-21.9
			c20.6-18.9,45.8-32.9,60-58.4c4.7-4.9,8.2-11,10.6-18.3c6.5-3.7,9.4-11,14.1-16.4c9.4-10.3,17-22.5,24.7-34.7s13.5-26.2,21.2-38.3
			c0-9.7,7.1-12.2,7.1-21.9c4.7-5.5,4.1-16.4,8.8-21.9c-0.6-6.1,0.6-10.3,1.8-14.6c1.2-31.6-1.2-59.6-7.1-84
			c14.1-3.7,28.2-7.3,38.8-14.6C586.4,179.1,597.5,169.4,592.8,152.4z M512.3,252.7c-3.5,21.3-14.7,34.7-24.7,49.3
			c1.2,9.1-2.4,13.4-1.8,21.9c-3.5,7.9-7.1,15.8-8.8,25.6c-4.7,6.7-7.6,15.2-12.3,21.9c-8.8,13.4-18.2,25.6-28.2,38.3
			c-8.8,14-21.7,23.7-31.7,36.5c-10,12.2-22.3,21.9-33.5,32.9c-11.2,4.3-21.2,9.7-30,16.4c-5.3,2.4-11.2,4.3-15.9,7.3
			c-4.1,3.7-11.8,3.7-15.9,7.3c-25.9,3.7-54.7,4.3-84.6,3.7c-24.7-2.4-50.5-3.7-72.3-9.1c-21.7-4.9-35.9-17.6-54.7-25.6
			c3.5-6.1,15.3-3.7,22.9-5.5c0.6-4.3,9.4,0,10.6-3.7c5.9,1.2,7.1-2.4,12.3-1.8c13.5-4.9,29.4-7.3,40.6-14.6
			c6.5-3.7,9.4-11,15.9-14.6c0.6-4.9,2.4-8.5,5.3-11c1.2-6.7,4.7-11,3.5-20.1c2.9-4.9,7.1-8.5,7.1-16.4c-1.8-3.7-2.9-7.9-7.1-9.1
			c-0.6-4.9-8.8-1.8-10.6-5.5c-5.9,0.6-10-0.6-14.1-1.8c-3.5-1.2-11.8,2.4-12.3-1.8c-20-0.6-31.2-10.3-44.1-18.3
			c10-6.7,24.7-8.5,31.7-18.3c12.3-1.8,25.3-3,26.4-16.4c0-17.6-18.2-16.4-31.7-20.1c-18.2-16.4-28.2-41.4-42.3-62.1
			c5.9-3.7,13.5-5.5,17.6-11c10.6,1.2,12.9-6.1,15.9-12.8c0.6-12.2-7.6-14.6-14.1-20.1c-5.9-5.5-11.2-11.6-15.9-18.3
			c0-20.1-0.6-40.8,1.8-58.4c1.8-0.6,1.8,0.6,1.8,1.8c5.3,11,13.5,18.9,19.4,29.2c12.3,8.5,21.7,21.3,37,27.4
			c10.6,10.3,26.4,15.2,37,25.6c14.1,6.7,27.6,14,40.6,21.9c15.9,4.9,25.3,16.4,47.6,14.6c4.7-2.4,9.4-4.9,14.1-7.3
			c5.9-11-1.2-26.8,3.5-40.2c5.9-16.4,18.8-25.6,30-36.5c7.1-3.7,12.9-8.5,19.4-12.8c8.2-2.4,15.9-5.5,22.9-9.1
			c8.8-0.6,17-1.8,24.7-3.7h30c5.9,1.2,11.2,3,17.6,3.7c4.7,3.7,8.8,7.9,15.9,9.1c18.8,17,30,42,33.5,74.8
			C509.4,228.4,513.5,237.5,512.3,252.7z M519.4,114c-2.9,8.5-5.3,17.6-14.1,20.1c-0.6-2.4-2.9-3-3.5-5.5c0-4.9,4.7-4.9,7.1-7.3
			C512.3,119.5,514.1,115.2,519.4,114C518.8,112.2,521.7,112.8,519.4,114z M388.9,188.9c4.1,3,6.5,7.9,12.3,9.1
			c2.4,5.5,7.6,7.9,14.1,9.1c1.2-3.7,8.2-1.2,8.8-5.5c4.1-0.6,4.1-5.5,7.1-7.3c-0.6-13.4-2.9-24.9-8.8-32.9
			C404.1,151.1,382.4,162.7,388.9,188.9z"/>
	</g>
</g>
</svg>
