<?xml version="1.0" encoding="utf-8"?>
<!-- Generator: Adobe Illustrator 19.2.1, SVG Export Plug-In . SVG Version: 6.00 Build 0)  -->
<svg version="1.1" id="Capa_1" xmlns="http://www.w3.org/2000/svg" xmlns:xlink="http://www.w3.org/1999/xlink" x="0px" y="0px"
	 viewBox="0 0 200.8 200.8" style="enable-background:new 0 0 200.8 200.8;" xml:space="preserve">
<style type="text/css">
	.st0{fill:#70B0A8;stroke:#70B0A8;stroke-width:3;stroke-miterlimit:10;}
</style>
<g>
	<path class="st0" d="M83.8,97.7C77.6,92.8,50.4,86.1,56,74.2c0.5-1-0.9-1.8-1.5-0.9c-4.5,6.5-0.3,12.9,5.9,16.4
		c7.1,4.1,20.5,4.5,24.8,12.7c6.5,12.2-4.4,32.6-18,35c-0.9,0.2-0.7,1.8,0.2,1.7c11.7-1.4,21.6-15.5,23.6-26.6
		C92.2,105.6,89.2,102,83.8,97.7z"/>
	<path class="st0" d="M125.4,7.3c1.9-2.1,1-5.8-1.7-6.9c-3.6-1.5-6.7,1.2-8,4.4c-4.4-0.8-9-1.2-13.8-1.2c-0.7,0-1.1,0.6-1.1,1.2
		c-1.8,1-1.6,5-0.5,6.4c0.2,0.3,0.5,0.4,0.8,0.4c0.1,0.1,0.3,0.2,0.5,0.2c3.7,0.7,7.2,1.7,10.6,2.9c-1.6,4-3.3,7.9-5.5,11.6
		c-1.9-0.4-3.9-0.8-5.9-1.1C69.2,21.3,35.8,39,27.5,69.5c-0.1,0-0.3,0-0.4,0c-0.4,0-0.4,0.6,0,0.7c0.1,0,0.1,0,0.2,0
		c-0.6,2.3-1.1,4.7-1.4,7.1c-0.2,1.6-0.3,3.2-0.4,4.7c-0.1,0-0.3,0-0.4,0c-0.7-0.1-0.7,1.1,0,1.2c0.1,0,0.2,0,0.4,0
		c-0.2,4.6,0.1,9.3,0.7,14c-0.7,0.3-0.7,1.5,0.2,1.5c3.9,24.1,18.7,46.7,41.6,54.9c-0.4,1-0.8,1.9-1.2,2.8c-0.9,1.9-1.9,3.8-3,5.6
		c-3-0.8-6-1.7-9-2.7c-0.5-0.2-0.9,0.2-0.9,0.6c-2.3,0.8-3.9,3.6-2.4,5.8c0.5,0.7,1.9,0.6,1.8-0.5c-0.2-1.6,0-3.2,1.8-3.8
		c0.2-0.1,0.2-0.2,0.3-0.3c49.7,19.9,105,3.1,113-54.3c6.3-45.4-18-91.2-66.7-97.5c-0.1-0.7,0-1.4,0.3-2.1c0.2-0.5,0.5-0.9,0.6-1.3
		c57.4-0.1,79.8,63.6,67.5,111.8c-13,50.7-62.7,68.6-108.5,52c-0.1-0.3-0.5-0.5-0.9-0.3c-2.5-0.9-5-2-7.5-3.1
		c-0.9-0.4-1.6,0.8-0.8,1.3c2.3,1.4,4.7,2.6,7.1,3.7c-1.8,3.3-3.4,6.8-4.8,10.3c-3.9-0.3-8.2,0.9-11.1,3.6
		c-2.6,2.5-4.6,7.1-2.4,10.4c0.4,0.6,1.5,0.5,1.5-0.3c4.2,6,13.3,4.7,20.4,5c20.1,0.8,40.2,0.5,60.3-0.7c0.6,0,1-0.4,1.1-0.8
		c5.9-2.3,7.3-10.2,2.5-14.7c-0.4-0.4-0.9-0.4-1.3-0.4c-0.1,0-0.2-0.1-0.3-0.1c-21.2-1-42.3,1.6-63.5-1c1.8-2.7,3.4-5.5,5-8.3
		c20,6.7,42.9,5.7,62.6-1.7c23.3-8.7,37-30.9,43-54.1C184,75.1,167.8,21.6,125.4,7.3z M66.8,149.2c5.1,0.3,10,1.1,15,2
		c0.6,0.1,0.9-0.8,0.3-1c-5-1.4-10.2-1.9-15.3-2.1c-0.5,0-0.6,0.5-0.4,0.8c-3.1-1.6-6.1-3.3-8.9-5.3c7.4,1.5,15,2.6,22.5,3.5
		c0.5,0.1,0.6-0.8,0.1-0.9c-7.9-1.4-15.9-2.7-23.9-3.6c0,0,0,0-0.1,0c-3.8-2.8-7.3-5.8-10.4-9.2c4.1,0.9,8.1,1.8,12.2,2.5
		c0.7,0.1,1.1-1,0.3-1.1c-4.7-1.2-9.4-2.1-14.1-3c-1.6-1.9-3.1-3.8-4.4-5.9c3.7,0.6,7.4,0.9,11.1,1.2c0.5,0,0.6-0.7,0.1-0.8
		c-3.9-0.6-7.9-1.1-11.8-1.3c-3.3-5-5.9-10.6-7.7-16.5c4,0.5,8,1,12,1.7c0.7,0.1,1.1-0.9,0.3-1.1c-4.1-1.2-8.5-1.8-12.8-2.1
		c-0.8-2.7-1.3-5.4-1.8-8.2c3.9,0.3,7.7,0.8,11.6,1.6c0.9,0.2,1.3-1.2,0.4-1.4c-4-1.2-8.1-1.7-12.2-1.9c-0.2-1.6-0.3-3.3-0.5-4.9
		c0.1,0.1,0.2,0.2,0.4,0.3c2.7,0.5,5.4,1,8.1,1.3c0.8,0.1,0.9-1.1,0.2-1.3c-2.6-0.6-5.3-1-7.9-1.4c-0.4-0.1-0.8,0.2-0.9,0.6
		c-0.2-2.5-0.3-5.1-0.2-7.8c0-0.1,0-0.3,0-0.4c2,0.2,4.1,0.4,6.1,0.3c0.4,0,0.6-0.7,0.1-0.8c-2-0.5-4-0.6-6.1-0.7
		c0.1-2.3,0.4-4.5,0.8-6.6c1.9,0.1,3.9,0.1,5.8,0c0.3,0,0.3-0.5,0-0.5c-1.9-0.1-3.8,0-5.7,0c0.3-1.6,0.7-3.1,1.1-4.5
		c2.2,0.3,4.4,0.6,6.6,0.7c0.7,0.1,0.6-0.9,0-1c-2.1-0.3-4.2-0.4-6.4-0.6c0.4-1.5,1-3,1.5-4.4c2.7,0,5.4,0.1,8.2,0.3
		c0.8,0,1.1-1.3,0.2-1.5c-2.5-0.5-5.1-0.6-7.6-0.5c0.6-1.3,1.2-2.5,1.9-3.7c1.9,0,3.6,0.5,5.3,1.4c0.7,0.4,1.2-0.6,0.6-1
		c-1.6-1.1-3.4-1.6-5.3-1.6c1.1-2,2.3-3.9,3.7-5.7c8,12.3-3.4,28.2,3.1,41.6c7.5,15.4,16.5,27.1,19.7,44.7c0.3,1.4,2.4,0.8,2.2-0.6
		c-1.1-7.4-2.8-14.4-5.7-21.3c-3.3-7.8-10.1-14.3-13-22c-5.4-14.1,4.7-31.8-5.3-43.6c9.5-12,23.8-20,39.5-22.7
		c-0.1,0.3-0.1,0.6,0.1,1c5.2,12.1,3,25.4-9,32.1c-5,2.8-9.7,4.4-13.2,9.1c-0.3,0.4,0.4,1,0.8,0.6c7.2-7.6,18.3-6.9,24-16.6
		c4.8-8.3,4.2-18.2,0-26.5c6-0.8,12.2-0.9,18.4,0c9,1.2,16.8,4.2,23.3,8.5c-4.1,0.6-8.2,3.6-10.4,6.6c-0.5,0.7,0.4,1.7,1,1
		c1.8-1.9,3.9-3.4,6.4-4.3c2-0.7,4.1-0.7,6.1-1.1c7.3,5.6,13,13,16.9,21.5c-9.6,1-44.3,2.9-33-13.2c0.5-0.8-0.6-1.6-1.3-1
		c-4.4,4.4-3.5,11.9,2.2,14.8c9.1,4.6,23,2.9,32.8,1.2c1.5,3.4,2.7,6.9,3.6,10.6c-13.3-0.6-28.6-12.6-41.6-4.4
		c-7.5,4.8-6.1,15.1,1.3,19.4c0.6,0.4,1.3-0.5,0.8-1c-6.9-7-3.7-17.9,6.9-18.7c4.5-0.4,8.8,0.8,13,2.1c6.7,2,12.9,4.3,19.9,4.4
		c1.5,6.4,2.3,13.2,2.3,20.1c0,12.9-6.2,25.3-15.5,35.5c-12.9-1.1-5.8-21.9-8.7-30c-2.3-6.5-7.9-7.4-13.3-10.7
		c-0.8-0.5-1.9,0.8-1.1,1.4c4.5,3.5,9.8,4.2,12.2,10.1c2.5,6,0,12.6,0.5,18.8c0.4,5.7,3,11.3,8.8,11.9c-14.2,14.6-35,24.1-53.1,22.3
		c-0.4,0-0.7,0.1-0.9,0.3c-3.2-1-6.2-2.3-9.2-3.6c-0.1-0.3-0.5-0.5-0.9-0.4C68.7,150.3,67.8,149.7,66.8,149.2z M70,163.5
		c-1.7-0.4-3.4-0.8-5.1-1.2c1.3-1.7,2.5-3.5,3.5-5.4c0.5-0.9,1-1.8,1.4-2.7c1.3,0.4,2.6,0.8,4,1.1c-0.4,1-0.7,2.2-1.2,3.2
		c-0.7,1.6-1.6,3.1-2.5,4.6C70,163.2,70,163.3,70,163.5z M165.5,105.9c-7,51.5-50.1,66.8-94,57.9c1.2-1.6,2.2-3.2,3.1-5
		c0.5-1,1-2,1.3-3.1c1.1,0.2,2.2,0.5,3.3,0.6c0.2,0.6,0.6,1,1.4,1.1c31.7,3.1,71.7-26.4,73.1-59.5c1.3-30.3-12-59.4-39.8-69.5
		c1.1-1.7,2.2-3.4,3.2-5.2c1-1.8,2.2-3.6,3-5.5C154,32.8,170.8,66.9,165.5,105.9z M118.5,17.1c-1.1,1.6-2,3.4-3,5.2
		c-1,1.9-1.9,3.8-2.9,5.7c-1.6-0.5-3.2-1-4.9-1.5c2.3-3.6,4.3-7.4,5.6-11.4C115.2,15.7,116.8,16.4,118.5,17.1z M123.6,6.3
		c-0.1,0.1-0.1,0.2-0.2,0.3C121.3,6,119.2,5.5,117,5c0.9-1.7,2.3-3.2,4.3-3.3C123.8,1.6,126,4.6,123.6,6.3z M125,185.8
		c0.1,0.1,0.1,0.2,0.2,0.3c3.4,3.4,2.5,8.5-1.3,10.8c-0.1,0-0.2,0-0.3,0c-12,0.7-24.1,1.2-36.2,1.3c-7.8,0.1-35.5,2.5-43.1-3.9
		c6.1,0.4,12.3,0.5,18.4,0.6c0.8,0,0.8-1.2,0-1.2c-6.4-0.3-12.8-0.6-19.2-0.7c-0.1,0-0.2,0.1-0.3,0.1c-0.1-0.1-0.2-0.3-0.3-0.4
		c0.1-1.1,0.4-2.2,0.8-3.1c9.8,0.3,19.5,0.8,29.3,2.2c1.3,0.2,1.5-1.6,0.2-1.7c-9.5-1.3-19.2-2-28.8-1.7c0.5-0.7,1.1-1.4,1.9-2
		c2.6-1.9,5.6-2.3,8.5-3.1c-0.1,1.5,0.5,3,2.2,3.5c1.9,0.6,4.1-0.8,4.2-2.8C82.4,188.1,103.8,185.2,125,185.8z M59.7,182.4
		c-0.3,0.5-0.2,1,0.2,1.4c-0.4,0.6-1,1.1-1.8,1c-0.9-0.1-1.6-0.9-1.6-1.9c0.3-0.2,0.4-0.7,0.2-1c1.6-3.2,3.1-6.6,4.3-9.9
		c1.6,0.7,3.3,1.3,5,1.9C63.8,176.7,61.6,179.5,59.7,182.4z"/>
	<path class="st0" d="M47.7,117.8c-4-0.7-8-1-12-1.4c-0.6-0.1-0.6,0.9,0,1c4,0.5,7.9,1.1,11.9,1.4C48.1,118.9,48.3,117.9,47.7,117.8
		z"/>
</g>
</svg>
